<?xml version="1.0" encoding="UTF-8" standalone="no"?>
<!-- Created with Inkscape (http://www.inkscape.org/) -->

<svg
   xmlns:dc="http://purl.org/dc/elements/1.1/"
   xmlns:cc="http://creativecommons.org/ns#"
   xmlns:rdf="http://www.w3.org/1999/02/22-rdf-syntax-ns#"
   xmlns:svg="http://www.w3.org/2000/svg"
   xmlns="http://www.w3.org/2000/svg"
   version="1.1"
   width="336"
   height="112"
   id="svg2">
  <defs
     id="defs4" />
  <metadata
     id="metadata7">
    <rdf:RDF>
      <cc:Work
         rdf:about="">
        <dc:format>image/svg+xml</dc:format>
        <dc:type
           rdf:resource="http://purl.org/dc/dcmitype/StillImage" />
        <dc:title></dc:title>
      </cc:Work>
    </rdf:RDF>
  </metadata>
  <g
     id="layer3"
     style="display:none">
    <rect
       width="333.98807"
       height="109.98806"
       x="-1.9940338"
       y="1.0059702"
       id="rect4431"
       style="opacity:0.6;fill:#333333;fill-opacity:1;stroke:#333333;stroke-width:2.01193953;stroke-linejoin:round;stroke-miterlimit:4;stroke-opacity:1;stroke-dasharray:none" />
  </g>
  <g
     transform="translate(0,-940.36218)"
     id="layer1"
     style="display:none" />
  <g
     transform="translate(0,-940.36218)"
     id="g4526"
     style="display:inline">
    <path
       d="m 302.90625,14.96875 c -0.0423,0.0077 -0.0841,0.01816 -0.125,0.03125 -0.44715,0.100141 -0.79228,0.541902 -0.78125,1 l 0,6 -49.9375,0 c 0,0 -40.04601,19.991757 -60.0625,30 0,0 -19.33333,0 -29,0 L 99.6875,52 88.375,52 19,52 l 0,8 77.375,0 11.28125,0 L 163,60 c 10.3125,0 30.9375,0 30.9375,0 20,-10 60,-30 60,-30 L 302,30 l 0,1 0,5 c 0.0104,0.717905 0.96885,1.216326 1.5625,0.8125 l 15,-10 c 0.53862,-0.364696 0.53862,-1.291554 0,-1.65625 l -15,-10 c -0.18807,-0.136125 -0.42465,-0.203719 -0.65625,-0.1875 z M 19,22 l 0,8 46.9375,0 0.40625,0 0.3125,0.28125 L 86.375,50 97.688,50 70.84375,23.15625 69.65625,22 68,22 z m 107.25,0 c 0,0 -17.10741,18.663982 -25.656,28 l 10.781,0 c 6.18145,-6.613076 18.375,-20 18.375,-20 22.16667,0 66.5,0 66.5,0 L 207.34375,42.09375 214.78125,38.375 199.75,22 c 0,0 -49,0 -73.5,0 z m 176.65625,22.96875 c -0.0423,0.0077 -0.0841,0.01816 -0.125,0.03125 -0.44715,0.100141 -0.79228,0.541902 -0.78125,1 l 0,6 -49,0 -0.9375,0 -0.875,0.40625 -16.15625,8.0625 L 227.625,64.1875 192.1875,81.90625 192,82 l -0.25,0 -61.68788,0 -0.40625,0 -0.3125,-0.28125 L 111.375,62 l -10.781,0 24.56187,26.8125 1.1875,1.1875 1.625,0 65.03163,0 0.9375,0 0.875,-0.4375 L 233.25,70.34375 240.65625,66.625 253.75,60.09375 253.9375,60 l 0.25,0 47.8125,0 0,1 0,5 c 0.0104,0.717905 0.96885,1.216326 1.5625,0.8125 l 15,-10 c 0.53862,-0.364696 0.53862,-1.291554 0,-1.65625 l -15,-10 c -0.18807,-0.136125 -0.42465,-0.203719 -0.65625,-0.1875 z m -79.6875,2.625 -7.40625,3.71875 10.375,11.34375 7.4375,-3.71875 z M 86.375,62 68.530875,81.6875 68.218375,82 67.780875,82 19,82 l 0,8 50.999625,0 1.71875,0 1.21875,-1.3125 L 97.688,62 z m 155.71875,6.1875 -7.4375,3.6875 L 250.0625,88.6875 251.28125,90 253,90 l 49,0 0,1 0,5 c 0.0104,0.717905 0.96885,1.216326 1.5625,0.8125 l 15,-10 c 0.53862,-0.364696 0.53862,-1.291554 0,-1.65625 l -15,-10 C 303.33816,75.000425 303.04827,74.942447 302.78125,75 302.3341,75.100141 301.98897,75.541902 302,76 l 0,6 -46.78125,0 -0.4375,0 -0.3125,-0.3125 z"
       transform="translate(0,940.36218)"
       id="path4532"
       style="font-size:medium;font-style:normal;font-variant:normal;font-weight:normal;font-stretch:normal;text-indent:0;text-align:start;text-decoration:none;line-height:normal;letter-spacing:normal;word-spacing:normal;text-transform:none;direction:ltr;block-progression:tb;writing-mode:lr-tb;text-anchor:start;baseline-shift:baseline;color:#000000;fill:#333333;fill-opacity:1;stroke:none;stroke-width:2;marker:none;visibility:visible;display:inline;overflow:visible;enable-background:accumulate;font-family:Sans;-inkscape-font-specification:Sans" />
  </g>
</svg>
